<svg xmlns="http://www.w3.org/2000/svg" viewBox="0 0 27.117 27.117" enable-background="new 0 0 27.117 27.117"><path d="M16.052 7.247c0 1.38-1.116 2.497-2.493 2.497-1.376 0-2.494-1.118-2.494-2.497 0-1.375 1.116-2.49 2.493-2.49s2.492 1.115 2.492 2.49zm4.756 0c0 .896-.17 1.75-.467 2.54-.95 2.823-7.24 17.33-7.24 17.33S7.18 11.3 6.666 9.487c-.23-.704-.356-1.454-.356-2.24C6.31 3.25 9.554 0 13.56 0c4.003 0 7.25 3.248 7.248 7.246zm-2.624.028c0-2.554-2.07-4.626-4.625-4.626S8.934 4.72 8.934 7.273s2.07 4.625 4.624 4.625c2.555 0 4.624-2.07 4.624-4.625z" fill="#010002"/></svg>