<?xml version="1.0" encoding="utf-8"?>

<!-- The icon can be used freely in both personal and commercial projects with no attribution required, but always appreciated. 
You may NOT sub-license, resell, rent, redistribute or otherwise transfer the icon without express written permission from iconmonstr.com -->

<!DOCTYPE svg PUBLIC "-//W3C//DTD SVG 1.1//EN" "http://www.w3.org/Graphics/SVG/1.1/DTD/svg11.dtd">
<svg version="1.1" xmlns="http://www.w3.org/2000/svg" xmlns:xlink="http://www.w3.org/1999/xlink" x="0px" y="0px"
	 width="512px" height="512px" viewBox="0 0 512 512" enable-background="new 0 0 512 512" xml:space="preserve">
<path id="navigation-8-icon" d="M166.959,208.253l154.729-56.81l-57.5,155.42l-18.896-79.023L166.959,208.253z M424.5,218.5
	c0,94.5-81.93,156.833-168.5,243.5C169.43,375.333,87.5,313,87.5,218.5C87.5,125.439,162.939,50,256,50S424.5,125.439,424.5,218.5z
	 M379.625,213.334c0-68.276-55.349-123.625-123.625-123.625c-68.275,0-123.624,55.349-123.624,123.625
	c0,68.275,55.349,123.624,123.624,123.624C324.276,336.958,379.625,281.609,379.625,213.334z"/>
</svg>
