<?xml version="1.0" encoding="iso-8859-1"?>
<!-- Generator: Adobe Illustrator 18.1.1, SVG Export Plug-In . SVG Version: 6.00 Build 0)  -->
<svg version="1.1" id="Capa_1" xmlns="http://www.w3.org/2000/svg" xmlns:xlink="http://www.w3.org/1999/xlink" x="0px" y="0px"
	 viewBox="0 0 27.117 27.117" style="enable-background:new 0 0 27.117 27.117;" xml:space="preserve">
<g>
	<g>
		<path style="fill:#010002;" d="M16.052,7.247c0,1.379-1.116,2.497-2.493,2.497c-1.375,0-2.493-1.118-2.493-2.497
			c0-1.375,1.116-2.491,2.493-2.491S16.052,5.872,16.052,7.247z M20.808,7.246c0,0.897-0.17,1.75-0.467,2.542
			c-0.95,2.822-7.24,17.329-7.24,17.329S7.179,11.3,6.665,9.486C6.436,8.783,6.309,8.033,6.309,7.248C6.309,3.249,9.555,0,13.559,0
			C17.563-0.001,20.809,3.248,20.808,7.246z M18.184,7.275c0-2.554-2.069-4.626-4.625-4.626c-2.554,0-4.624,2.071-4.624,4.625
			s2.07,4.625,4.624,4.625C16.115,11.899,18.184,9.829,18.184,7.275z"/>
	</g>
</g>
<g>
</g>
<g>
</g>
<g>
</g>
<g>
</g>
<g>
</g>
<g>
</g>
<g>
</g>
<g>
</g>
<g>
</g>
<g>
</g>
<g>
</g>
<g>
</g>
<g>
</g>
<g>
</g>
<g>
</g>
</svg>
